# xmcd CD database file
#
# Track frame offsets:
#	150
#	27795
#	49085
#	82186
#	117736
#	135195
#	166344
#	190539
#	210550
#
# Disc length: 3233 seconds
#
# Revision: 0
# Processed by: cddbd v1.5.2PL0 Copyright (c) Steve Scherf et al.
# Submitted via: CDex 1.79
#
DISCID=720c9f09
DTITLE=Q - Q
DYEAR=2010
DGENRE=Jazz
TTITLE0=Plante - part 1
TTITLE1=Plante - part 2
TTITLE2=Plante - part 3
TTITLE3=Plante - part 4
TTITLE4=No Coffee, No Speak - part 1
TTITLE5=No Coffee, No Speak - part 2
TTITLE6=No Coffee, No Speak - part 3
TTITLE7=Coiffeur - part 1
TTITLE8=Coiffeur - part 2
EXTD=YEAR: 2010
EXTT0=
EXTT1=
EXTT2=
EXTT3=
EXTT4=
EXTT5=
EXTT6=
EXTT7=
EXTT8=
PLAYORDER=
